<?xml version="1.0" standalone="no"?><!DOCTYPE svg PUBLIC "-//W3C//DTD SVG 1.1//EN" "http://www.w3.org/Graphics/SVG/1.1/DTD/svg11.dtd"><svg t="1594965412276" class="icon" viewBox="0 0 1024 1024" version="1.1" xmlns="http://www.w3.org/2000/svg" p-id="5899" xmlns:xlink="http://www.w3.org/1999/xlink" width="64" height="64"><defs><style type="text/css"></style></defs><path d="M509.999572 1023.999452c-86.927946 0-172.840355-22.301981-248.169279-64.396971A513.045132 513.045132 0 0 1 80.795951 789.380618a39.2485 39.2485 0 0 1-5.396283-29.659644 39.265426 39.265426 0 0 1 17.224298-24.731304 39.257461 39.257461 0 0 1 29.659644-5.396283 39.265426 39.265426 0 0 1 24.731304 17.224298 434.02742 434.02742 0 0 0 153.156865 144.046904c63.719946 35.623433 136.310904 54.390948 209.817837 54.390948 57.61677 0.069694 114.656079-11.46959 167.722846-33.901002 51.314469-21.624957 97.401912-52.807906 136.997885-92.393923a430.154442 430.154442 0 0 0 92.403879-136.997885c22.511062-53.016987 33.901003-109.458921 33.901003-167.722846a429.29024 429.29024 0 0 0-33.910959-167.722847c-21.615001-51.314469-52.797949-97.401912-92.393923-136.997885a430.154442 430.154442 0 0 0-136.997885-92.403879C624.695475 94.604208 568.253542 83.224224 509.999572 83.224224a429.111028 429.111028 0 0 0-167.722847 33.910959c-51.314469 21.615001-97.401912 52.797949-136.997885 92.393922a430.154442 430.154442 0 0 0-92.403878 136.997885C90.363899 399.543977 78.983915 455.985911 78.983915 514.239881c-0.009956 21.744432-17.632504 39.366979-39.376936 39.366979C17.862548 553.60686 0.24 535.984312 0.24 514.239881c-0.199125-135.23563 53.534711-264.965459 149.283887-360.475685C245.024157 58.01502 374.763942 4.29114 509.999572 4.480309c135.23563-0.189169 264.975415 53.534711 360.475685 149.283887A508.143674 508.143674 0 0 1 1019.759144 514.239881c0.189169 135.23563-53.534711 264.975415-149.283887 360.475684C774.974987 970.464741 645.235202 1024.198577 509.999572 1023.999452zM40.970985 555.269552c-22.590712-0.069694-40.890284-18.35931-40.969935-40.959978V186.609837c0.069694-22.590712 18.369266-40.890284 40.969935-40.959978 22.590712 0.069694 40.890284 18.369266 40.959978 40.959978v327.699737c-0.069694 22.600669-18.369266 40.900241-40.959978 40.959978z m199.801857 26.742465c10.822435-2.837529 21.744432 3.305472 25.37846 13.879001 3.992453 11.608978 11.270466 20.131521 21.734475 25.716972 8.084468 4.430528 17.174517 6.600988 27.309971 6.600989 18.896947 0 35.045971-7.855475 48.357466-23.675943 13.311495-15.700993 22.759968-37.216431 28.335463-85.454422-8.761493 13.879001-19.68349 23.675943-32.656472 29.360957-12.963027 5.69497-26.961502 8.413024-41.865996 8.413024-30.386449 0-54.281429-9.438517-72.023452-28.325508-17.64246-18.88699-26.513471-43.130439-26.513472-72.939426 0-28.564457 8.751536-53.594449 26.165003-75.328924 17.413467-21.615001 43.130439-32.536998 77.14096-32.536998 45.858449 0 77.479472 20.599464 94.902896 61.897954 9.667511 22.640493 14.446507 51.095432 14.446506 85.225429 0 38.451005-5.794533 72.590958-17.393554 102.290426-19.235459 49.492477-51.782413 74.183956-97.630905 74.183957-30.724962 0-54.161955-8.074512-70.091941-24.123974a80.100951 80.100951 0 0 1-21.96347-40.730984c-2.279979-10.921997 4.550002-21.734475 15.362481-24.581961l1.005581 0.129431z m117.204876-84.657922c10.712916-8.532499 16.049462-23.436993 16.049462-44.713481 0-19.115984-4.778996-33.333497-14.446507-42.682408-9.677467-9.328998-21.85395-13.98852-36.748488-13.98852-15.929987 0-28.673976 5.356458-38.002974 16.049462-9.338955 10.683047-14.107994 25.029991-14.107994 42.891489 0 16.95548 4.092015 30.376493 12.405477 40.392472 8.184031 10.015979 21.376051 14.91445 39.366979 14.91445 12.95307 0 24.800998-4.330965 35.484045-12.863464z m305.178719-98.646442c14.098038 25.936009 21.047495 61.439967 21.047495 106.611435 0 42.772014-6.371995 78.166453-19.115984 106.163405-18.429003 40.163479-48.695978 60.195437-90.561974 60.195437-37.783937 0-65.890407-16.387974-84.428929-49.27344-15.362481-27.419489-23.088524-64.167977-23.088525-110.364939 0-35.732951 4.659521-66.457913 13.869045-92.05541 17.293992-47.78996 48.596415-71.674984 93.877402-71.674984 40.840503-0.009956 70.310978 16.836005 88.40147 50.398496z m-45.738974 197.193321c10.70296-15.820468 15.929987-45.400462 15.929986-88.759894 0-31.172993-3.872978-56.889965-11.489502-77.031441-7.736-20.131521-22.65045-30.276931-44.832956-30.276931-20.360514 0-35.265008 9.567948-44.713482 28.683932-9.448473 19.115984-14.107994 47.322017-14.107994 84.538448 0 27.986995 2.947048 50.51797 8.98053 67.592924 9.21948 25.936009 25.039948 39.028467 47.341929 39.028468 17.861497 0 32.198485-7.97495 42.891489-23.795418v0.019912z m224.035349-228.147277c12.743989 12.853508 19.115984 28.444982 19.115984 46.883942 0 18.996509-6.591032 34.926496-19.902527 47.560967-13.201976 12.743989-28.673976 19.115984-46.206917 19.115983-19.454496 0-35.494001-6.600988-47.899479-19.802964-12.405477-13.201976-18.667953-28.564457-18.667953-46.196961 0-18.777472 6.600988-34.59794 19.68349-47.451448 13.082502-12.853508 28.793451-19.344978 46.883942-19.344977 18.548478 0.009956 34.249471 6.49147 46.99346 19.235458z m-72.581001 72.590958c7.049019 7.049019 15.591474 10.593441 25.597497 10.593441 9.557992 0 17.980972-3.52451 25.13951-10.593441 7.168494-7.049019 10.70296-15.581518 10.70296-25.707016 0-9.677467-3.52451-18.100447-10.583485-25.149466-7.049019-7.049019-15.472-10.593441-25.258985-10.593441-9.786986 0-18.319485 3.52451-25.487979 10.593441-7.168494 7.049019-10.693004 15.591474-10.693003 25.716972-0.109519 9.557992 3.414991 17.980972 10.583485 25.149466v-0.009956z m0 0" p-id="5900" fill="#4eb1e5"></path></svg>