<?xml version="1.0" standalone="no"?><!DOCTYPE svg PUBLIC "-//W3C//DTD SVG 1.1//EN" "http://www.w3.org/Graphics/SVG/1.1/DTD/svg11.dtd"><svg t="1594965446261" class="icon" viewBox="0 0 1024 1024" version="1.1" xmlns="http://www.w3.org/2000/svg" p-id="6954" xmlns:xlink="http://www.w3.org/1999/xlink" width="64" height="64"><defs><style type="text/css"></style></defs><path d="M511.999975 1023.99945c-135.829861 0.2-266.139727-53.769945-362.059629-149.939846C53.770445 778.139702-0.1895 647.829836 0.0005 511.999975a510.376477 510.376477 0 0 1 149.939846-362.059629C245.860248 53.770445 376.170114-0.1895 511.999975 0.0005c135.829861-0.19 266.139727 53.769945 362.059629 149.939846C970.229505 245.870248 1024.19945 376.170114 1023.99945 511.999975c-0.01 21.839978-17.699982 39.539959-39.539959 39.539959s-39.539959-17.699982-39.54996-39.539959c0-58.50994-11.429988-115.199882-34.049965-168.459827a432.044557 432.044557 0 0 0-92.809905-137.599859c-39.769959-39.769959-86.059912-71.079927-137.599859-92.799905A431.081558 431.081558 0 0 0 511.999975 79.090419c-58.50994 0-115.199882 11.429988-168.459827 34.049965a432.044557 432.044557 0 0 0-137.599859 92.809905c-39.769959 39.769959-71.079927 86.059912-92.799905 137.599859A431.081558 431.081558 0 0 0 79.090419 511.999975c0 58.51994 11.429988 115.199882 34.049965 168.459827a432.044557 432.044557 0 0 0 92.809905 137.599859c39.769959 39.769959 86.059912 71.079927 137.599859 92.799905a431.166558 431.166558 0 0 0 168.459827 34.049965c73.829924 0 146.73985-18.849981 210.739784-54.629944A436.023553 436.023553 0 0 0 876.579601 745.599735a39.43796 39.43796 0 0 1 24.839975-17.299982 39.42996 39.42996 0 0 1 29.789969 5.419995 39.43796 39.43796 0 0 1 17.299982 24.839974 39.42996 39.42996 0 0 1-5.419994 29.78997 515.127472 515.127472 0 0 1-181.829814 170.969824C685.599797 1001.599473 599.309885 1023.99945 511.999975 1023.99945z m470.859517-466.289522c-22.689977-0.07-41.069958-18.439981-41.149958-41.139958V187.430308c0.07-22.689977 18.449981-41.069958 41.149958-41.139958 22.689977 0.07 41.069958 18.449981 41.139958 41.139958v329.139662c-0.07 22.699977-18.449981 41.079958-41.139958 41.139958z m-741.26924 26.859973c10.869989-2.849997 21.839978 3.319997 25.489974 13.939985 4.009996 11.659988 11.319988 20.219979 21.829978 25.829974 8.119992 4.449995 17.249982 6.629993 27.429972 6.629993 18.979981 0 35.199964-7.889992 48.56995-23.779976 13.369986-15.769984 22.859977-37.379962 28.459971-85.829912-8.799991 13.939986-19.76998 23.779976-32.799967 29.48997-13.019987 5.719994-27.079972 8.449991-42.049957 8.449991-30.519969 0-54.519944-9.47999-72.339925-28.44997-17.719982-18.969981-26.629973-43.319956-26.629973-73.259925 0-28.689971 8.789991-53.829945 26.279973-75.659923 17.489982-21.709978 43.319956-32.679966 77.47992-32.679966 46.059953 0 77.81992 20.689979 95.319903 62.169936 9.70999 22.739977 14.509985 51.319947 14.509985 85.599912 0 38.61996-5.819994 72.909925-17.469982 102.739895-19.31998 49.709949-52.009947 74.509924-98.0599 74.509924-30.859968 0-54.399944-8.109992-70.399927-24.229976a80.452918 80.452918 0 0 1-22.059978-40.909958c-2.289998-10.969989 4.569995-21.829978 15.429984-24.689974l1.009999 0.13z m117.71988-85.029913c10.759989-8.569991 16.119983-23.539976 16.119983-44.909954 0-19.19998-4.799995-33.479966-14.509985-42.869956-9.71999-9.36999-21.949977-14.049986-36.909962-14.049986-15.999984 0-28.79997 5.379994-38.169961 16.119984-9.37999 10.729989-14.169985 25.139974-14.169986 43.079955 0 17.029983 4.109996 30.509969 12.459988 40.569959 8.219992 10.05999 21.469978 14.979985 39.539959 14.979985 13.009987 0 24.909974-4.349996 35.639964-12.919987z m306.519685-99.079899c14.159985 26.049973 21.139978 61.709937 21.139979 107.079891 0 42.959956-6.399993 78.509919-19.199981 106.62989-18.509981 40.339959-48.90995 60.459938-90.959906 60.459938-37.949961 0-66.179932-16.459983-84.799914-49.489949-15.429984-27.539972-23.189976-64.449934-23.189976-110.849886 0-35.889963 4.679995-66.749932 13.929986-92.459906 17.369982-47.999951 48.80995-71.989926 94.289903-71.989926 41.019958-0.01 70.619928 16.909983 88.789909 50.619948z m-45.939953 198.059797c10.749989-15.889984 15.999984-45.599953 15.999984-89.149908 0-31.309968-3.889996-57.139941-11.539988-77.369921-7.769992-20.219979-22.749977-30.409969-45.029954-30.409969-20.449979 0-35.419964 9.60999-44.909954 28.809971-9.48999 19.19998-14.169985 47.529951-14.169985 84.909913 0 28.109971 2.959997 50.739948 9.01999 67.88993 9.259991 26.049973 25.149974 39.19996 47.549952 39.19996 17.939982 0 32.339967-8.009992 43.079955-23.899976v0.02z m225.01977-229.149765c12.799987 12.909987 19.19998 28.569971 19.19998 47.089952 0 19.07998-6.619993 35.079964-19.98998 47.769951-13.259986 12.799987-28.79997 19.19998-46.409952 19.19998-19.53998 0-35.649963-6.629993-48.109951-19.889979-12.459987-13.259986-18.749981-28.689971-18.74998-46.399953 0-18.859981 6.629993-34.749964 19.769979-47.659951 13.139987-12.909987 28.91997-19.42998 47.089952-19.42998 18.629981 0.01 34.399965 6.519993 47.199952 19.31998z m-72.899926 72.909925c7.079993 7.079993 15.659984 10.639989 25.709974 10.63999 9.59999 0 18.059981-3.539996 25.249974-10.63999 7.199993-7.079993 10.749989-15.649984 10.749989-25.819973 0-9.71999-3.539996-18.179981-10.629989-25.259974-7.079993-7.079993-15.539984-10.639989-25.369974-10.639989-9.82999 0-18.399981 3.539996-25.599974 10.639989-7.199993 7.079993-10.739989 15.659984-10.739989 25.829973-0.11 9.59999 3.429996 18.059981 10.629989 25.259974v-0.01z m0 0" p-id="6955" fill="#4eb1e5"></path></svg>