<?xml version="1.0" standalone="no"?><!DOCTYPE svg PUBLIC "-//W3C//DTD SVG 1.1//EN" "http://www.w3.org/Graphics/SVG/1.1/DTD/svg11.dtd"><svg t="1594965394563" class="icon" viewBox="0 0 1024 1024" version="1.1" xmlns="http://www.w3.org/2000/svg" p-id="5117" xmlns:xlink="http://www.w3.org/1999/xlink" width="64" height="64"><defs><style type="text/css"></style></defs><path d="M458.0096 258.22848V45.856c0-10.79808 0-21.59616-10.80832-28.79232-14.39104-14.4-35.9872-14.4-50.38848 0L36.85888 413.01632c-7.19488 7.19488-10.79808 14.38976-10.79808 25.18784 0 10.79936 3.60192 21.59744 10.79808 28.80256l356.35584 392.3456c7.2 7.19488 17.99936 14.40384 28.79616 14.40384 10.79936 0 17.99936-3.60192 25.18912-10.79808 7.2064-7.20896 10.80832-18.00576 10.80832-28.80384V621.78304c237.55648 0 453.54368 172.78208 496.73728 395.95264 28.79232-64.79104 43.19232-140.38656 43.19232-215.9744 0.00128-302.36032-241.1712-543.5328-539.92832-543.5328z m35.98464 287.968h-107.97952v194.37696L108.84864 438.20416l277.16736-302.35904v194.37696h107.97952c255.57632 7.19488 431.94752 298.75456 431.94752 431.95008-79.18848-97.1968-280.76032-215.97568-431.9488-215.97568z" p-id="5118" fill="#4eb1e5"></path></svg>